# Blender v2.63 (sub 0) OBJ File: ''
# www.blender.org
mtllib Cone.mtl
o Cone
v 0.000000 -1.000000 -1.000000
v 0.000000 1.000000 0.000000
v 0.098017 -1.000000 -0.995185
v 0.195090 -1.000000 -0.980785
v 0.290285 -1.000000 -0.956940
v 0.382683 -1.000000 -0.923880
v 0.471397 -1.000000 -0.881921
v 0.555570 -1.000000 -0.831470
v 0.634393 -1.000000 -0.773010
v 0.707107 -1.000000 -0.707107
v 0.773010 -1.000000 -0.634393
v 0.831470 -1.000000 -0.555570
v 0.881921 -1.000000 -0.471397
v 0.923880 -1.000000 -0.382683
v 0.956940 -1.000000 -0.290285
v 0.980785 -1.000000 -0.195090
v 0.995185 -1.000000 -0.098017
v 1.000000 -1.000000 0.000000
v 0.995185 -1.000000 0.098017
v 0.980785 -1.000000 0.195091
v 0.956940 -1.000000 0.290285
v 0.923879 -1.000000 0.382684
v 0.881921 -1.000000 0.471397
v 0.831469 -1.000000 0.555571
v 0.773010 -1.000000 0.634394
v 0.707106 -1.000000 0.707107
v 0.634393 -1.000000 0.773011
v 0.555570 -1.000000 0.831470
v 0.471396 -1.000000 0.881922
v 0.382683 -1.000000 0.923880
v 0.290284 -1.000000 0.956941
v 0.195090 -1.000000 0.980785
v 0.098016 -1.000000 0.995185
v -0.000001 -1.000000 1.000000
v -0.098018 -1.000000 0.995185
v -0.195091 -1.000000 0.980785
v -0.290286 -1.000000 0.956940
v -0.382684 -1.000000 0.923879
v -0.471398 -1.000000 0.881921
v -0.555571 -1.000000 0.831469
v -0.634394 -1.000000 0.773010
v -0.707108 -1.000000 0.707106
v -0.773011 -1.000000 0.634393
v -0.831470 -1.000000 0.555570
v -0.881922 -1.000000 0.471396
v -0.923880 -1.000000 0.382683
v -0.956940 -1.000000 0.290285
v -0.980785 -1.000000 0.195090
v -0.995185 -1.000000 0.098017
v -1.000000 -1.000000 0.000000
v -0.995185 -1.000000 -0.098016
v -0.980785 -1.000000 -0.195089
v -0.956941 -1.000000 -0.290284
v -0.923880 -1.000000 -0.382682
v -0.881922 -1.000000 -0.471395
v -0.831471 -1.000000 -0.555569
v -0.773012 -1.000000 -0.634392
v -0.707108 -1.000000 -0.707105
v -0.634395 -1.000000 -0.773009
v -0.555572 -1.000000 -0.831468
v -0.471399 -1.000000 -0.881920
v -0.382686 -1.000000 -0.923878
v -0.290288 -1.000000 -0.956939
v -0.195093 -1.000000 -0.980785
v -0.098021 -1.000000 -0.995184
vn -0.131274 0.446782 -0.884959
vn 0.043898 0.446782 -0.893565
vn -0.043900 0.446782 -0.893565
vn 0.131272 0.446782 -0.884959
vn -0.217383 0.446782 -0.867831
vn -0.301399 0.446783 -0.842345
vn -0.382511 0.446783 -0.808746
vn -0.459940 0.446783 -0.767359
vn -0.532940 0.446783 -0.718582
vn -0.600807 0.446783 -0.662885
vn -0.662888 0.446782 -0.600804
vn -0.718584 0.446783 -0.532937
vn -0.767361 0.446783 -0.459937
vn -0.808748 0.446783 -0.382508
vn -0.842346 0.446782 -0.301395
vn -0.867832 0.446782 -0.217379
vn -0.884960 0.446782 -0.131271
vn -0.893565 0.446782 -0.043898
vn -0.893565 0.446782 0.043898
vn -0.884959 0.446782 0.131272
vn -0.867831 0.446783 0.217380
vn -0.842346 0.446782 0.301395
vn -0.808747 0.446783 0.382509
vn -0.767361 0.446783 0.459938
vn -0.718584 0.446782 0.532938
vn -0.662887 0.446783 0.600804
vn -0.600806 0.446783 0.662886
vn -0.532939 0.446782 0.718583
vn -0.459939 0.446783 0.767360
vn -0.382510 0.446782 0.808747
vn -0.301396 0.446782 0.842345
vn -0.217382 0.446782 0.867831
vn -0.131272 0.446782 0.884959
vn -0.043899 0.446782 0.893565
vn 0.043898 0.446782 0.893565
vn 0.131270 0.446782 0.884960
vn 0.217380 0.446782 0.867831
vn 0.301396 0.446782 0.842346
vn 0.382508 0.446782 0.808748
vn 0.459938 0.446782 0.767361
vn 0.532937 0.446783 0.718584
vn 0.600805 0.446782 0.662887
vn 0.662886 0.446783 0.600805
vn 0.718583 0.446782 0.532938
vn 0.767360 0.446783 0.459938
vn 0.808747 0.446782 0.382509
vn 0.842345 0.446782 0.301396
vn 0.867831 0.446783 0.217381
vn 0.884959 0.446782 0.131271
vn 0.893565 0.446782 0.043898
vn 0.893565 0.446782 -0.043898
vn 0.884960 0.446782 -0.131271
vn 0.867831 0.446782 -0.217380
vn 0.842346 0.446783 -0.301396
vn 0.808747 0.446782 -0.382509
vn 0.767361 0.446782 -0.459938
vn 0.718584 0.446782 -0.532938
vn 0.662887 0.446782 -0.600805
vn 0.600805 0.446783 -0.662887
vn 0.532938 0.446782 -0.718584
vn 0.459938 0.446782 -0.767360
vn 0.382509 0.446782 -0.808747
vn 0.301396 0.446783 -0.842346
vn 0.217380 0.446782 -0.867831
vn 0.000000 -1.000000 -0.000000
usemtl Material.002
s off
f 64//1 2//1 65//1
f 1//2 2//2 3//2
f 2//3 1//3 65//3
f 3//4 2//4 4//4
f 63//5 2//5 64//5
f 62//6 2//6 63//6
f 61//7 2//7 62//7
f 60//8 2//8 61//8
f 59//9 2//9 60//9
f 58//10 2//10 59//10
f 57//11 2//11 58//11
f 56//12 2//12 57//12
f 55//13 2//13 56//13
f 54//14 2//14 55//14
f 53//15 2//15 54//15
f 52//16 2//16 53//16
f 51//17 2//17 52//17
f 50//18 2//18 51//18
f 49//19 2//19 50//19
f 48//20 2//20 49//20
f 47//21 2//21 48//21
f 46//22 2//22 47//22
f 45//23 2//23 46//23
f 44//24 2//24 45//24
f 43//25 2//25 44//25
f 42//26 2//26 43//26
f 41//27 2//27 42//27
f 40//28 2//28 41//28
f 39//29 2//29 40//29
f 38//30 2//30 39//30
f 37//31 2//31 38//31
f 36//32 2//32 37//32
f 35//33 2//33 36//33
f 34//34 2//34 35//34
f 33//35 2//35 34//35
f 32//36 2//36 33//36
f 31//37 2//37 32//37
f 30//38 2//38 31//38
f 29//39 2//39 30//39
f 28//40 2//40 29//40
f 27//41 2//41 28//41
f 26//42 2//42 27//42
f 25//43 2//43 26//43
f 24//44 2//44 25//44
f 23//45 2//45 24//45
f 22//46 2//46 23//46
f 21//47 2//47 22//47
f 20//48 2//48 21//48
f 19//49 2//49 20//49
f 18//50 2//50 19//50
f 17//51 2//51 18//51
f 16//52 2//52 17//52
f 15//53 2//53 16//53
f 14//54 2//54 15//54
f 13//55 2//55 14//55
f 12//56 2//56 13//56
f 11//57 2//57 12//57
f 10//58 2//58 11//58
f 9//59 2//59 10//59
f 8//60 2//60 9//60
f 7//61 2//61 8//61
f 6//62 2//62 7//62
f 5//63 2//63 6//63
f 4//64 2//64 5//64
f 1//65 3//65 65//65
f 3//65 4//65 65//65
f 4//65 64//65 65//65
f 4//65 5//65 64//65
f 5//65 63//65 64//65
f 5//65 6//65 63//65
f 6//65 62//65 63//65
f 6//65 7//65 62//65
f 7//65 61//65 62//65
f 7//65 8//65 61//65
f 8//65 60//65 61//65
f 8//65 9//65 60//65
f 9//65 59//65 60//65
f 9//65 10//65 59//65
f 10//65 58//65 59//65
f 10//65 11//65 58//65
f 11//65 57//65 58//65
f 11//65 12//65 57//65
f 12//65 56//65 57//65
f 12//65 13//65 56//65
f 13//65 55//65 56//65
f 13//65 14//65 55//65
f 14//65 54//65 55//65
f 14//65 15//65 54//65
f 15//65 53//65 54//65
f 15//65 16//65 53//65
f 16//65 52//65 53//65
f 16//65 17//65 52//65
f 17//65 51//65 52//65
f 17//65 18//65 51//65
f 18//65 50//65 51//65
f 18//65 19//65 50//65
f 19//65 49//65 50//65
f 19//65 20//65 49//65
f 20//65 48//65 49//65
f 20//65 47//65 48//65
f 20//65 21//65 47//65
f 21//65 46//65 47//65
f 21//65 22//65 46//65
f 22//65 45//65 46//65
f 22//65 23//65 45//65
f 23//65 44//65 45//65
f 23//65 24//65 44//65
f 24//65 43//65 44//65
f 24//65 25//65 43//65
f 25//65 42//65 43//65
f 25//65 26//65 42//65
f 26//65 41//65 42//65
f 26//65 27//65 41//65
f 27//65 40//65 41//65
f 27//65 28//65 40//65
f 28//65 39//65 40//65
f 28//65 29//65 39//65
f 29//65 38//65 39//65
f 29//65 30//65 38//65
f 30//65 37//65 38//65
f 30//65 31//65 37//65
f 31//65 36//65 37//65
f 31//65 32//65 36//65
f 32//65 35//65 36//65
f 32//65 33//65 35//65
f 33//65 34//65 35//65
