# Blender v2.63 (sub 0) OBJ File: ''
# www.blender.org
mtllib Cylinder.mtl
o Cylinder
v 0.000000 -1.000000 -1.000000
v 0.000000 1.000000 -1.000000
v 0.098017 -1.000000 -0.995185
v 0.098017 1.000000 -0.995185
v 0.195090 -1.000000 -0.980785
v 0.195090 1.000000 -0.980785
v 0.290285 -1.000000 -0.956940
v 0.290285 1.000000 -0.956940
v 0.382683 -1.000000 -0.923880
v 0.382683 1.000000 -0.923880
v 0.471397 -1.000000 -0.881921
v 0.471397 1.000000 -0.881921
v 0.555570 -1.000000 -0.831470
v 0.555570 1.000000 -0.831470
v 0.634393 -1.000000 -0.773010
v 0.634393 1.000000 -0.773010
v 0.707107 -1.000000 -0.707107
v 0.707107 1.000000 -0.707107
v 0.773010 -1.000000 -0.634393
v 0.773010 1.000000 -0.634393
v 0.831470 -1.000000 -0.555570
v 0.831470 1.000000 -0.555570
v 0.881921 -1.000000 -0.471397
v 0.881921 1.000000 -0.471397
v 0.923880 -1.000000 -0.382683
v 0.923880 1.000000 -0.382683
v 0.956940 -1.000000 -0.290285
v 0.956940 1.000000 -0.290285
v 0.980785 -1.000000 -0.195090
v 0.980785 1.000000 -0.195090
v 0.995185 -1.000000 -0.098017
v 0.995185 1.000000 -0.098017
v 1.000000 -1.000000 0.000000
v 1.000000 1.000000 0.000000
v 0.995185 -1.000000 0.098017
v 0.995185 1.000000 0.098017
v 0.980785 -1.000000 0.195091
v 0.980785 1.000000 0.195091
v 0.956940 -1.000000 0.290285
v 0.956940 1.000000 0.290285
v 0.923879 -1.000000 0.382684
v 0.923879 1.000000 0.382684
v 0.881921 -1.000000 0.471397
v 0.881921 1.000000 0.471397
v 0.831469 -1.000000 0.555571
v 0.831469 1.000000 0.555571
v 0.773010 -1.000000 0.634394
v 0.773010 1.000000 0.634394
v 0.707106 -1.000000 0.707107
v 0.707106 1.000000 0.707107
v 0.634393 -1.000000 0.773011
v 0.634393 1.000000 0.773011
v 0.555570 -1.000000 0.831470
v 0.555570 1.000000 0.831470
v 0.471396 -1.000000 0.881922
v 0.471396 1.000000 0.881922
v 0.382683 -1.000000 0.923880
v 0.382683 1.000000 0.923880
v 0.290284 -1.000000 0.956941
v 0.290284 1.000000 0.956941
v 0.195090 -1.000000 0.980785
v 0.195090 1.000000 0.980785
v 0.098016 -1.000000 0.995185
v 0.098016 1.000000 0.995185
v -0.000001 -1.000000 1.000000
v -0.000001 1.000000 1.000000
v -0.098018 -1.000000 0.995185
v -0.098018 1.000000 0.995185
v -0.195091 -1.000000 0.980785
v -0.195091 1.000000 0.980785
v -0.290286 -1.000000 0.956940
v -0.290286 1.000000 0.956940
v -0.382684 -1.000000 0.923879
v -0.382684 1.000000 0.923879
v -0.471398 -1.000000 0.881921
v -0.471398 1.000000 0.881921
v -0.555571 -1.000000 0.831469
v -0.555571 1.000000 0.831469
v -0.634394 -1.000000 0.773010
v -0.634394 1.000000 0.773010
v -0.707108 -1.000000 0.707106
v -0.707108 1.000000 0.707106
v -0.773011 -1.000000 0.634393
v -0.773011 1.000000 0.634393
v -0.831470 -1.000000 0.555570
v -0.831470 1.000000 0.555570
v -0.881922 -1.000000 0.471396
v -0.881922 1.000000 0.471396
v -0.923880 -1.000000 0.382683
v -0.923880 1.000000 0.382683
v -0.956940 -1.000000 0.290285
v -0.956940 1.000000 0.290285
v -0.980785 -1.000000 0.195090
v -0.980785 1.000000 0.195090
v -0.995185 -1.000000 0.098017
v -0.995185 1.000000 0.098017
v -1.000000 -1.000000 0.000000
v -1.000000 1.000000 0.000000
v -0.995185 -1.000000 -0.098016
v -0.995185 1.000000 -0.098016
v -0.980785 -1.000000 -0.195089
v -0.980785 1.000000 -0.195089
v -0.956941 -1.000000 -0.290284
v -0.956941 1.000000 -0.290284
v -0.923880 -1.000000 -0.382682
v -0.923880 1.000000 -0.382682
v -0.881922 -1.000000 -0.471395
v -0.881922 1.000000 -0.471395
v -0.831471 -1.000000 -0.555569
v -0.831471 1.000000 -0.555569
v -0.773012 -1.000000 -0.634392
v -0.773012 1.000000 -0.634392
v -0.707108 -1.000000 -0.707105
v -0.707108 1.000000 -0.707105
v -0.634395 -1.000000 -0.773009
v -0.634395 1.000000 -0.773009
v -0.555572 -1.000000 -0.831468
v -0.555572 1.000000 -0.831468
v -0.471399 -1.000000 -0.881920
v -0.471399 1.000000 -0.881920
v -0.382686 -1.000000 -0.923878
v -0.382686 1.000000 -0.923878
v -0.290288 -1.000000 -0.956939
v -0.290288 1.000000 -0.956939
v -0.195093 -1.000000 -0.980785
v -0.195093 1.000000 -0.980785
v -0.098021 -1.000000 -0.995184
v -0.098021 1.000000 -0.995184
vn 0.049068 0.000000 -0.998795
vn 0.146731 0.000000 -0.989177
vn 0.242980 0.000000 -0.970031
vn 0.336890 0.000000 -0.941544
vn 0.427555 0.000000 -0.903989
vn 0.514103 0.000000 -0.857728
vn 0.595699 0.000000 -0.803207
vn 0.671559 0.000000 -0.740951
vn 0.740951 0.000000 -0.671559
vn 0.803207 0.000000 -0.595699
vn 0.857728 0.000000 -0.514103
vn 0.903989 0.000000 -0.427555
vn 0.941544 0.000000 -0.336890
vn 0.970031 0.000000 -0.242980
vn 0.989177 0.000000 -0.146730
vn 0.998795 0.000000 -0.049068
vn 0.998795 0.000000 0.049068
vn 0.989177 0.000000 0.146731
vn 0.970031 0.000000 0.242981
vn 0.941544 0.000000 0.336890
vn 0.903989 0.000000 0.427556
vn 0.857728 0.000000 0.514103
vn 0.803207 0.000000 0.595699
vn 0.740951 0.000000 0.671559
vn 0.671558 0.000000 0.740952
vn 0.595699 0.000000 0.803208
vn 0.514102 0.000000 0.857729
vn 0.427554 0.000000 0.903990
vn 0.336890 0.000000 0.941544
vn 0.242980 0.000000 0.970031
vn 0.146729 0.000000 0.989177
vn 0.049067 0.000000 0.998796
vn -0.049068 0.000000 0.998795
vn -0.146731 0.000000 0.989176
vn -0.242981 0.000000 0.970031
vn -0.336890 0.000000 0.941544
vn -0.427556 0.000000 0.903989
vn -0.514104 0.000000 0.857728
vn -0.595700 0.000000 0.803207
vn -0.671560 0.000000 0.740951
vn -0.740952 0.000000 0.671558
vn -0.803208 0.000000 0.595699
vn -0.857729 0.000000 0.514102
vn -0.903989 0.000000 0.427555
vn -0.941544 0.000000 0.336889
vn -0.970031 0.000000 0.242980
vn -0.989176 0.000000 0.146731
vn -0.998795 0.000000 0.049068
vn -0.998795 0.000000 -0.049067
vn -0.989177 0.000000 -0.146730
vn -0.970032 0.000000 -0.242979
vn -0.941544 0.000000 -0.336889
vn -0.903990 0.000000 -0.427554
vn -0.857729 0.000000 -0.514101
vn -0.803208 0.000000 -0.595698
vn -0.740953 0.000000 -0.671557
vn -0.671560 0.000000 -0.740950
vn -0.595701 0.000000 -0.803206
vn -0.514105 0.000000 -0.857727
vn -0.427557 0.000000 -0.903988
vn -0.336893 0.000000 -0.941543
vn -0.242983 0.000000 -0.970030
vn -0.000000 1.000000 0.000000
vn -0.049070 0.000000 -0.998795
vn -0.146733 0.000000 -0.989176
vn 0.000000 -1.000000 -0.000000
usemtl Material.003
s off
f 1//1 2//1 4//1
f 1//1 4//1 3//1
f 3//2 4//2 6//2
f 3//2 6//2 5//2
f 5//3 6//3 8//3
f 5//3 8//3 7//3
f 7//4 8//4 10//4
f 7//4 10//4 9//4
f 9//5 10//5 12//5
f 9//5 12//5 11//5
f 11//6 12//6 14//6
f 11//6 14//6 13//6
f 13//7 14//7 16//7
f 13//7 16//7 15//7
f 15//8 16//8 18//8
f 15//8 18//8 17//8
f 17//9 18//9 20//9
f 17//9 20//9 19//9
f 19//10 20//10 22//10
f 19//10 22//10 21//10
f 21//11 22//11 24//11
f 21//11 24//11 23//11
f 23//12 24//12 26//12
f 23//12 26//12 25//12
f 25//13 26//13 28//13
f 25//13 28//13 27//13
f 27//14 28//14 30//14
f 27//14 30//14 29//14
f 29//15 30//15 32//15
f 29//15 32//15 31//15
f 31//16 32//16 34//16
f 31//16 34//16 33//16
f 33//17 34//17 36//17
f 33//17 36//17 35//17
f 35//18 36//18 38//18
f 35//18 38//18 37//18
f 37//19 38//19 40//19
f 37//19 40//19 39//19
f 39//20 40//20 42//20
f 39//20 42//20 41//20
f 41//21 42//21 44//21
f 41//21 44//21 43//21
f 43//22 44//22 46//22
f 43//22 46//22 45//22
f 45//23 46//23 48//23
f 45//23 48//23 47//23
f 47//24 48//24 50//24
f 47//24 50//24 49//24
f 49//25 50//25 52//25
f 49//25 52//25 51//25
f 51//26 52//26 54//26
f 51//26 54//26 53//26
f 53//27 54//27 56//27
f 53//27 56//27 55//27
f 55//28 56//28 58//28
f 55//28 58//28 57//28
f 57//29 58//29 60//29
f 57//29 60//29 59//29
f 59//30 60//30 62//30
f 59//30 62//30 61//30
f 61//31 62//31 64//31
f 61//31 64//31 63//31
f 63//32 64//32 66//32
f 63//32 66//32 65//32
f 65//33 66//33 68//33
f 65//33 68//33 67//33
f 67//34 68//34 70//34
f 67//34 70//34 69//34
f 69//35 70//35 72//35
f 69//35 72//35 71//35
f 71//36 72//36 74//36
f 71//36 74//36 73//36
f 73//37 74//37 76//37
f 73//37 76//37 75//37
f 75//38 76//38 78//38
f 75//38 78//38 77//38
f 77//39 78//39 80//39
f 77//39 80//39 79//39
f 79//40 80//40 82//40
f 79//40 82//40 81//40
f 81//41 82//41 84//41
f 81//41 84//41 83//41
f 83//42 84//42 86//42
f 83//42 86//42 85//42
f 85//43 86//43 88//43
f 85//43 88//43 87//43
f 87//44 88//44 90//44
f 87//44 90//44 89//44
f 89//45 90//45 92//45
f 89//45 92//45 91//45
f 91//46 92//46 94//46
f 91//46 94//46 93//46
f 93//47 94//47 96//47
f 93//47 96//47 95//47
f 95//48 96//48 98//48
f 95//48 98//48 97//48
f 97//49 98//49 100//49
f 97//49 100//49 99//49
f 99//50 100//50 102//50
f 99//50 102//50 101//50
f 101//51 102//51 104//51
f 101//51 104//51 103//51
f 103//52 104//52 106//52
f 103//52 106//52 105//52
f 105//53 106//53 108//53
f 105//53 108//53 107//53
f 107//54 108//54 110//54
f 107//54 110//54 109//54
f 109//55 110//55 112//55
f 109//55 112//55 111//55
f 111//56 112//56 114//56
f 111//56 114//56 113//56
f 113//57 114//57 116//57
f 113//57 116//57 115//57
f 115//58 116//58 118//58
f 115//58 118//58 117//58
f 117//59 118//59 120//59
f 117//59 120//59 119//59
f 119//60 120//60 122//60
f 119//60 122//60 121//60
f 121//61 122//61 124//61
f 121//61 124//61 123//61
f 123//62 124//62 126//62
f 123//62 126//62 125//62
f 4//63 2//63 128//63
f 4//63 128//63 6//63
f 128//63 126//63 6//63
f 126//63 8//63 6//63
f 126//63 124//63 8//63
f 124//63 10//63 8//63
f 124//63 122//63 10//63
f 122//63 12//63 10//63
f 122//63 120//63 12//63
f 120//63 14//63 12//63
f 120//63 118//63 14//63
f 118//63 16//63 14//63
f 118//63 116//63 16//63
f 116//63 18//63 16//63
f 116//63 114//63 18//63
f 114//63 20//63 18//63
f 114//63 112//63 20//63
f 112//63 22//63 20//63
f 112//63 110//63 22//63
f 110//63 24//63 22//63
f 110//63 108//63 24//63
f 108//63 26//63 24//63
f 108//63 106//63 26//63
f 106//63 28//63 26//63
f 106//63 104//63 28//63
f 104//63 30//63 28//63
f 104//63 102//63 30//63
f 102//63 32//63 30//63
f 102//63 100//63 32//63
f 100//63 34//63 32//63
f 100//63 98//63 34//63
f 98//63 36//63 34//63
f 98//63 96//63 36//63
f 96//63 38//63 36//63
f 96//63 94//63 38//63
f 94//63 92//63 38//63
f 92//63 40//63 38//63
f 92//63 90//63 40//63
f 90//63 42//63 40//63
f 90//63 88//63 42//63
f 88//63 44//63 42//63
f 88//63 86//63 44//63
f 86//63 46//63 44//63
f 86//63 84//63 46//63
f 84//63 48//63 46//63
f 84//63 82//63 48//63
f 82//63 50//63 48//63
f 82//63 80//63 50//63
f 80//63 52//63 50//63
f 80//63 78//63 52//63
f 78//63 54//63 52//63
f 78//63 76//63 54//63
f 76//63 56//63 54//63
f 76//63 74//63 56//63
f 74//63 58//63 56//63
f 74//63 72//63 58//63
f 72//63 60//63 58//63
f 72//63 70//63 60//63
f 70//63 62//63 60//63
f 70//63 68//63 62//63
f 68//63 64//63 62//63
f 68//63 66//63 64//63
f 2//64 1//64 127//64
f 2//64 127//64 128//64
f 125//65 126//65 128//65
f 125//65 128//65 127//65
f 1//66 3//66 127//66
f 3//66 5//66 127//66
f 5//66 125//66 127//66
f 5//66 7//66 125//66
f 7//66 123//66 125//66
f 7//66 9//66 123//66
f 9//66 121//66 123//66
f 9//66 11//66 121//66
f 11//66 119//66 121//66
f 11//66 13//66 119//66
f 13//66 117//66 119//66
f 13//66 15//66 117//66
f 15//66 115//66 117//66
f 15//66 17//66 115//66
f 17//66 113//66 115//66
f 17//66 19//66 113//66
f 19//66 111//66 113//66
f 19//66 21//66 111//66
f 21//66 109//66 111//66
f 21//66 23//66 109//66
f 23//66 107//66 109//66
f 23//66 25//66 107//66
f 25//66 105//66 107//66
f 25//66 27//66 105//66
f 27//66 103//66 105//66
f 27//66 29//66 103//66
f 29//66 101//66 103//66
f 29//66 31//66 101//66
f 31//66 99//66 101//66
f 31//66 33//66 99//66
f 33//66 97//66 99//66
f 33//66 35//66 97//66
f 35//66 95//66 97//66
f 35//66 37//66 95//66
f 37//66 93//66 95//66
f 37//66 91//66 93//66
f 37//66 39//66 91//66
f 39//66 89//66 91//66
f 39//66 41//66 89//66
f 41//66 87//66 89//66
f 41//66 43//66 87//66
f 43//66 85//66 87//66
f 43//66 45//66 85//66
f 45//66 83//66 85//66
f 45//66 47//66 83//66
f 47//66 81//66 83//66
f 47//66 49//66 81//66
f 49//66 79//66 81//66
f 49//66 51//66 79//66
f 51//66 77//66 79//66
f 51//66 53//66 77//66
f 53//66 75//66 77//66
f 53//66 55//66 75//66
f 55//66 73//66 75//66
f 55//66 57//66 73//66
f 57//66 71//66 73//66
f 57//66 59//66 71//66
f 59//66 69//66 71//66
f 59//66 61//66 69//66
f 61//66 67//66 69//66
f 61//66 63//66 67//66
f 63//66 65//66 67//66
