# Blender v2.63 (sub 0) OBJ File: 'cube.blend'
# www.blender.org
mtllib Cube.mtl
o Cube
v 1.000000 -1.000000 -1.000000
v 1.000000 -1.000000 1.000000
v -1.000000 -1.000000 1.000000
v -1.000000 -1.000000 -1.000000
v 1.000000 1.000000 -0.999999
v 0.999999 1.000000 1.000001
v -1.000000 1.000000 1.000000
v -1.000000 1.000000 -1.000000
vt 0.734516 0.668170
vt 0.734516 0.345306
vt 0.976914 0.345306
vt 0.976914 0.668171
vt 0.494867 0.667735
vt 0.252440 0.667735
vt 0.252440 0.345227
vt 0.494867 0.345227
vt 0.735646 0.346515
vt 0.735646 0.661697
vt 0.495565 0.661697
vt 0.495565 0.346515
vt 0.494779 0.667928
vt 0.494779 0.994450
vt 0.251862 0.994450
vt 0.251862 0.667928
vt 0.255747 0.342672
vt 0.255747 0.666317
vt 0.011909 0.666317
vt 0.011909 0.342672
vt 0.252066 0.345026
vt 0.252066 0.024881
vt 0.494959 0.024881
vt 0.494959 0.345026
vn 0.000000 -1.000000 0.000000
vn 0.000000 1.000000 0.000000
vn 1.000000 0.000000 0.000000
vn -0.000000 -0.000000 1.000000
vn -1.000000 -0.000000 -0.000000
vn 0.000000 0.000000 -1.000000
usemtl Material_one.png
s off
f 1/1/1 2/2/1 3/3/1
f 1/1/1 3/3/1 4/4/1
f 5/5/2 8/6/2 7/7/2
f 5/5/2 7/7/2 6/8/2
f 1/9/3 5/10/3 6/11/3
f 1/9/3 6/11/3 2/12/3
f 2/13/4 6/14/4 7/15/4
f 2/13/4 7/15/4 3/16/4
f 3/17/5 7/18/5 8/19/5
f 3/17/5 8/19/5 4/20/5
f 5/21/6 1/22/6 4/23/6
f 5/21/6 4/23/6 8/24/6
